<svg xmlns="http://www.w3.org/2000/svg" width="82" height="79" viewBox="0 0 820 790">
  <style>
    .c1 {
      fill: rgb(0, 0, 0);
    }

    .c2 {
      fill: rgb(255, 255, 255);
    }
  </style>
  <g class="c1">
    <g style="transform: none;">
      <path id="p30VaSLTC"
        d="M125 655 c-25 -24 -25 -24 -25 -235 0 -136 4 -219 11 -233 6 -12 27 -39 47 -59 l36 -38 216 0 216 0 36 38 c59 62 60 64 57 295 -3 205 -4 212 -25 234 -23 23 -26 23 -284 23 l-261 0 -24 -25z">
      </path>
    </g>
  </g>
  <g class="c2">
    <g>
      <path d="M136 652 c-3 -5 5 -20 17 -35 l22 -27 235 -1 235 0 22 27 c12 15 20 31 17 36 -7 10 -541 10 -548 0z"></path>
      <path
        d="M120 412 c0 -205 1 -220 20 -237 19 -17 19 -15 22 191 2 169 0 214 -12 237 -8 15 -18 27 -22 27 -4 0 -8 -98 -8 -218z">
      </path>
      <path
        d="M670 603 c-12 -23 -14 -68 -12 -237 3 -206 3 -208 22 -191 19 17 20 32 20 237 0 120 -4 218 -8 218 -4 0 -14 -12 -22 -27z">
      </path>
      <path
        d="M182 568 c-15 -15 -17 -425 -2 -448 8 -13 45 -15 230 -15 185 0 222 2 230 15 15 23 13 433 -2 448 -17 17 -439 17 -456 0z">
      </path>
    </g>
  </g>
</svg>